<svg preserveAspectRatio="none" width="100%" height="100%" overflow="visible" style="display: block;" viewBox="0 0 128 22" fill="none" xmlns="http://www.w3.org/2000/svg">
<g id="CodeAI_Primary-Logo_RGB_02_White&#226;&#128;&#147;Knockout 1" clip-path="url(#clip0_16787_33737)">
<path id="Vector" d="M89.2092 0H75.3514C73.1991 0 71.4539 1.7732 71.4539 3.96V18.04C71.4539 20.2268 73.1991 22 75.3514 22H89.2092C91.3614 22 93.1066 20.2268 93.1066 18.04V3.96C93.1066 1.7732 91.3614 0 89.2092 0ZM85.7859 16.0028H78.818V5.9928H85.7144V7.524H80.5762V10.1134H84.9392V11.616H80.5762V14.476H85.7837V16.0072L85.7859 16.0028Z" fill="var(--fill-0, #121212)"/>
<g id="Group">
<path id="Vector_2" d="M41.5732 0H27.7155C25.5632 0 23.818 1.7732 23.818 3.96V18.04C23.818 20.2268 25.5632 22 27.7155 22H41.5732C43.7255 22 45.4707 20.2268 45.4707 18.04V3.96C45.4707 1.7732 43.7255 0 41.5732 0ZM34.6465 16.2184C31.9313 16.2184 29.5928 14.1438 29.5928 10.9978C29.5928 7.8518 31.9291 5.7772 34.6465 5.7772C37.3639 5.7772 39.7002 7.8364 39.7002 10.9978C39.7002 14.1592 37.3639 16.2184 34.6465 16.2184Z" fill="var(--fill-0, #121212)"/>
<path id="Vector_3" d="M34.6465 14.6894C36.4116 14.6894 37.8424 13.0376 37.8424 11C37.8424 8.9624 36.4116 7.3106 34.6465 7.3106C32.8814 7.3106 31.4506 8.9624 31.4506 11C31.4506 13.0376 32.8814 14.6894 34.6465 14.6894Z" fill="var(--fill-0, #121212)"/>
</g>
<path id="Vector_4" d="M17.7552 0H3.89749C1.74521 0 0 1.7732 0 3.96V18.04C0 20.2268 1.74521 22 3.89749 22H17.7552C19.9075 22 21.6527 20.2268 21.6527 18.04V3.96C21.6527 1.7732 19.9075 0 17.7552 0ZM11.1555 14.6608C12.6344 14.6608 13.3944 13.7588 13.6325 12.958H15.4341C15.1374 14.5178 13.7581 16.2184 11.1122 16.2184C8.28216 16.2184 6.24248 14.2296 6.24248 10.9978C6.24248 7.766 8.46621 5.7772 11.1122 5.7772C13.7581 5.7772 15.1244 7.4646 15.4341 9.0376H13.6325C13.3944 8.2368 12.6322 7.3348 11.1555 7.3348C9.39728 7.3348 8.11544 8.6658 8.11544 10.9956C8.11544 13.3254 9.39728 14.6564 11.1555 14.6564V14.6608Z" fill="var(--fill-0, #121212)"/>
<path id="Vector_5" d="M105.527 0.6424L94.8843 20.1476C94.4296 20.9792 95.0229 22 95.9583 22H117.243C118.178 22 118.772 20.9792 118.317 20.1476L107.677 0.6424C107.209 -0.2156 105.997 -0.2156 105.529 0.6424H105.527Z" fill="var(--fill-0, #121212)"/>
<path id="Vector_6" d="M126.809 0H121.937C121.28 0 120.746 0.541735 120.746 1.21V20.79C120.746 21.4583 121.28 22 121.937 22H126.809C127.467 22 128 21.4583 128 20.79V1.21C128 0.541735 127.467 0 126.809 0Z" fill="var(--fill-0, #121212)"/>
<g id="Group_2">
<path id="Vector_7" d="M57.8907 7.524H56.5547V14.4738H57.8907C60.1144 14.4738 61.4244 13.2154 61.4244 10.9978C61.4244 8.7802 60.1144 7.5218 57.8907 7.5218V7.524Z" fill="var(--fill-0, #121212)"/>
<path id="Vector_8" d="M65.3912 0H51.5335C49.3812 0 47.636 1.7732 47.636 3.96V18.04C47.636 20.2268 49.3812 22 51.5335 22H65.3912C67.5435 22 69.2887 20.2268 69.2887 18.04V3.96C69.2887 1.7732 67.5435 0 65.3912 0ZM58.0314 16.0028H54.7943V5.9928H58.0314C60.987 5.9928 63.2108 7.9948 63.2108 10.9978C63.2108 14.0008 60.987 16.0028 58.0314 16.0028Z" fill="var(--fill-0, #121212)"/>
</g>
</g>
<defs>
<clipPath id="clip0_16787_33737">
<rect width="128" height="22" fill="white"/>
</clipPath>
</defs>
</svg>
